<svg id="svg" version="1.1" xmlns="http://www.w3.org/2000/svg" xmlns:xlink="http://www.w3.org/1999/xlink" width="400" height="376.271186440678" viewBox="0, 0, 400,376.271186440678"><g id="svgg"><path id="path0" d="M329.633 8.843 L 329.633 17.686 349.200 17.686 L 368.768 17.686 368.768 18.627 C 368.768 19.379,368.579 19.567,367.827 19.567 C 367.137 19.567,366.886 19.768,366.886 20.320 C 366.886 20.822,366.635 21.072,366.134 21.072 C 365.582 21.072,365.381 21.323,365.381 22.013 C 365.381 22.766,365.193 22.954,364.440 22.954 C 363.770 22.954,363.500 23.158,363.500 23.663 C 363.500 24.055,363.163 24.459,362.747 24.568 C 362.297 24.686,361.994 25.081,361.994 25.553 C 361.994 26.075,361.754 26.341,361.282 26.341 C 360.471 26.341,360.113 27.041,360.113 28.629 C 360.113 29.476,359.941 29.727,359.360 29.727 C 358.868 29.727,358.608 29.978,358.608 30.454 C 358.608 30.920,358.305 31.223,357.761 31.300 C 357.217 31.378,356.871 31.723,356.794 32.267 C 356.717 32.811,356.414 33.114,355.947 33.114 C 355.481 33.114,355.221 33.373,355.221 33.840 C 355.221 34.307,354.919 34.610,354.374 34.687 C 353.830 34.764,353.485 35.110,353.408 35.654 C 353.330 36.198,353.028 36.500,352.561 36.500 C 352.005 36.500,351.834 36.765,351.834 37.629 C 351.834 38.250,351.641 38.758,351.406 38.758 C 350.827 38.758,349.980 39.920,349.965 40.734 C 349.958 41.137,349.662 41.392,349.200 41.392 C 348.648 41.392,348.448 41.643,348.448 42.333 C 348.448 43.086,348.260 43.274,347.507 43.274 C 346.837 43.274,346.566 43.477,346.566 43.982 C 346.566 44.375,346.230 44.779,345.814 44.888 C 345.135 45.066,345.061 45.401,345.061 48.318 C 345.061 51.301,345.120 51.552,345.814 51.552 C 346.444 51.552,346.566 51.803,346.566 53.097 C 346.566 54.297,346.776 54.808,347.507 55.382 C 348.203 55.930,348.449 56.483,348.454 57.506 C 348.464 60.091,348.125 60.006,358.970 60.136 C 368.373 60.248,368.768 60.283,368.768 60.983 C 368.768 61.596,369.036 61.712,370.461 61.712 C 372.016 61.712,372.154 61.789,372.154 62.653 C 372.154 63.323,372.358 63.594,372.863 63.594 C 373.255 63.594,373.660 63.930,373.768 64.346 C 373.886 64.796,374.282 65.099,374.753 65.099 C 375.343 65.099,375.541 65.336,375.541 66.040 C 375.541 66.729,375.742 66.980,376.294 66.980 C 376.874 66.980,377.046 67.231,377.046 68.078 C 377.046 69.672,377.405 70.367,378.228 70.367 C 379.446 70.367,379.118 78.780,377.893 78.954 C 377.184 79.054,377.046 79.307,377.046 80.509 C 377.046 81.628,376.880 81.988,376.294 82.141 C 375.843 82.259,375.541 82.654,375.541 83.126 C 375.541 83.715,375.304 83.913,374.600 83.913 C 373.930 83.913,373.659 84.117,373.659 84.622 C 373.659 85.344,372.711 85.780,371.119 85.790 C 370.525 85.793,370.273 86.019,370.273 86.548 C 370.273 87.241,370.022 87.300,367.088 87.300 C 364.287 87.300,363.854 87.391,363.500 88.053 C 362.953 89.073,360.757 89.073,359.737 88.053 C 359.091 87.407,358.482 87.300,355.453 87.300 C 352.239 87.300,351.905 87.233,351.725 86.548 C 351.583 86.004,351.212 85.795,350.391 85.795 C 349.295 85.795,348.071 84.987,348.071 84.263 C 348.071 84.071,347.394 83.913,346.566 83.913 C 345.341 83.913,345.061 83.781,345.061 83.202 C 345.061 82.766,344.714 82.403,344.165 82.265 C 343.673 82.141,343.181 81.700,343.072 81.284 C 342.915 80.683,342.560 80.527,341.355 80.527 C 339.837 80.527,339.836 80.526,339.721 78.928 L 339.605 77.328 337.347 77.328 L 335.089 77.328 334.974 78.928 C 334.871 80.341,334.751 80.527,333.939 80.527 C 333.100 80.527,333.020 80.675,333.020 82.220 C 333.020 83.663,332.908 83.913,332.267 83.913 C 331.715 83.913,331.515 84.164,331.515 84.854 C 331.515 85.607,331.326 85.795,330.574 85.795 C 329.710 85.795,329.633 85.933,329.633 87.488 C 329.633 88.931,329.522 89.182,328.881 89.182 C 328.379 89.182,328.128 89.432,328.128 89.934 C 328.128 90.486,327.877 90.687,327.187 90.687 C 326.268 90.687,326.246 90.751,326.246 93.482 C 326.246 96.629,326.718 97.460,328.505 97.460 C 329.334 97.460,329.608 97.654,329.701 98.307 C 329.778 98.851,330.124 99.196,330.668 99.274 C 331.212 99.351,331.515 99.653,331.515 100.120 C 331.515 100.581,331.774 100.847,332.223 100.847 C 332.613 100.847,333.019 101.181,333.126 101.589 C 333.264 102.116,333.767 102.402,334.863 102.578 C 336.033 102.765,336.406 102.995,336.406 103.529 C 336.406 104.113,336.696 104.233,338.100 104.233 C 339.510 104.233,339.793 104.352,339.793 104.946 C 339.793 105.750,340.493 106.115,342.038 106.115 C 342.775 106.115,343.151 106.341,343.289 106.867 C 343.460 107.522,343.802 107.620,345.923 107.620 C 347.977 107.620,348.389 107.729,348.542 108.315 C 348.817 109.366,350.001 109.465,362.535 109.490 C 374.106 109.513,375.541 109.367,375.541 108.171 C 375.541 107.748,376.068 107.620,377.811 107.620 C 379.800 107.620,380.118 107.519,380.385 106.798 C 380.623 106.153,381.004 105.972,382.160 105.952 C 383.390 105.931,383.651 105.788,383.751 105.080 C 383.836 104.485,384.127 104.233,384.728 104.233 C 385.199 104.233,385.873 103.914,386.226 103.524 C 386.579 103.134,387.368 102.715,387.978 102.593 C 388.768 102.435,389.087 102.151,389.087 101.609 C 389.087 101.098,389.335 100.847,389.840 100.847 C 390.333 100.847,390.593 100.596,390.593 100.120 C 390.593 99.653,390.895 99.351,391.439 99.274 C 391.983 99.196,392.329 98.851,392.406 98.307 C 392.484 97.763,392.786 97.460,393.253 97.460 C 393.696 97.460,393.979 97.201,393.979 96.797 C 393.979 96.432,394.360 95.966,394.826 95.762 C 395.480 95.475,395.699 95.026,395.788 93.791 C 395.882 92.498,396.044 92.192,396.635 92.192 C 397.107 92.192,397.366 91.934,397.366 91.465 C 397.366 91.065,397.684 90.636,398.074 90.513 C 398.817 90.277,399.247 88.875,399.247 86.689 C 399.247 85.990,399.417 85.419,399.624 85.419 C 399.867 85.419,400.000 81.217,400.000 73.565 C 400.000 66.396,399.860 61.712,399.645 61.712 C 399.450 61.712,399.239 60.992,399.175 60.113 C 399.079 58.783,398.916 58.493,398.213 58.393 C 397.495 58.291,397.366 58.043,397.366 56.759 C 397.366 55.561,397.209 55.204,396.613 55.048 C 396.197 54.939,395.861 54.535,395.861 54.142 C 395.861 53.637,395.590 53.434,394.920 53.434 C 394.167 53.434,393.979 53.246,393.979 52.493 C 393.979 51.803,393.779 51.552,393.227 51.552 C 392.725 51.552,392.474 51.301,392.474 50.800 C 392.474 50.248,392.223 50.047,391.533 50.047 C 390.781 50.047,390.593 49.859,390.593 49.106 C 390.593 48.416,390.392 48.166,389.840 48.166 C 389.338 48.166,389.087 47.915,389.087 47.413 C 389.087 46.867,388.837 46.660,388.172 46.660 C 387.600 46.660,387.171 46.390,387.028 45.938 C 386.875 45.459,386.310 45.134,385.346 44.971 C 384.354 44.803,383.833 44.495,383.703 43.999 C 383.542 43.383,383.169 43.274,381.221 43.274 C 379.186 43.274,378.928 43.190,378.928 42.528 C 378.928 41.618,377.673 41.240,375.442 41.479 C 374.565 41.572,374.164 41.577,374.550 41.489 C 374.936 41.401,375.332 41.020,375.431 40.643 C 375.530 40.265,375.934 39.872,376.328 39.769 C 376.746 39.660,377.046 39.252,377.046 38.793 C 377.046 38.265,377.286 38.006,377.776 38.006 C 378.352 38.006,378.559 37.650,378.759 36.312 C 378.957 34.994,379.170 34.619,379.723 34.619 C 380.182 34.619,380.433 34.353,380.433 33.866 C 380.433 33.315,380.684 33.114,381.373 33.114 C 382.126 33.114,382.314 32.926,382.314 32.173 C 382.314 31.483,382.515 31.232,383.067 31.232 C 383.559 31.232,383.819 30.981,383.819 30.506 C 383.819 30.039,384.122 29.737,384.666 29.659 C 385.210 29.582,385.556 29.236,385.633 28.692 C 385.710 28.148,386.013 27.846,386.480 27.846 C 386.923 27.846,387.206 27.587,387.206 27.182 C 387.206 26.818,387.587 26.352,388.053 26.148 C 388.580 25.916,388.945 25.381,389.020 24.728 C 389.086 24.152,389.467 23.476,389.866 23.226 C 390.266 22.977,390.593 22.390,390.593 21.923 C 390.593 21.267,390.808 21.072,391.533 21.072 C 392.223 21.072,392.474 20.872,392.474 20.320 C 392.474 19.818,392.725 19.567,393.227 19.567 C 393.779 19.567,393.979 19.316,393.979 18.627 C 393.979 17.874,394.167 17.686,394.920 17.686 C 395.610 17.686,395.861 17.485,395.861 16.933 C 395.861 16.431,396.112 16.181,396.613 16.181 C 397.160 16.181,397.366 15.930,397.366 15.266 C 397.366 14.604,397.600 14.318,398.213 14.231 C 399.052 14.112,399.060 14.051,399.162 7.056 L 399.264 0.000 364.449 0.000 L 329.633 0.000 329.633 8.843 M0.000 35.398 C 0.000 36.945,0.186 37.869,0.575 38.258 C 0.979 38.662,1.078 39.210,0.909 40.112 C 0.686 41.303,0.738 41.392,1.651 41.392 C 2.565 41.392,2.634 41.511,2.634 43.086 C 2.634 44.630,2.715 44.779,3.552 44.779 C 4.392 44.779,4.464 44.914,4.399 46.378 C 4.336 47.776,4.434 47.993,5.174 48.098 C 5.827 48.190,6.021 48.465,6.021 49.294 C 6.021 50.296,6.837 51.552,7.489 51.552 C 7.645 51.552,7.760 51.933,7.744 52.399 C 7.723 53.002,7.958 53.280,8.561 53.366 C 9.293 53.470,9.407 53.711,9.407 55.153 C 9.407 56.670,9.490 56.820,10.325 56.820 C 11.165 56.820,11.237 56.956,11.172 58.420 C 11.110 59.806,11.211 60.034,11.927 60.136 C 12.605 60.233,12.774 60.537,12.868 61.830 C 12.961 63.109,13.134 63.427,13.788 63.520 C 14.380 63.605,14.543 63.830,14.403 64.367 C 14.249 64.954,14.406 65.099,15.196 65.099 C 16.110 65.099,16.181 65.219,16.181 66.766 C 16.181 68.208,16.295 68.449,17.027 68.553 C 17.776 68.660,17.860 68.858,17.754 70.273 C 17.643 71.770,17.697 71.872,18.601 71.872 C 19.495 71.872,19.567 71.998,19.567 73.565 C 19.567 75.103,19.650 75.259,20.473 75.259 C 21.156 75.259,21.335 75.423,21.203 75.928 C 20.950 76.896,21.708 78.645,22.380 78.645 C 22.741 78.645,22.954 78.994,22.954 79.586 C 22.954 80.332,23.144 80.527,23.872 80.527 C 24.712 80.527,24.784 80.662,24.718 82.126 C 24.656 83.524,24.754 83.740,25.494 83.846 C 26.226 83.950,26.341 84.191,26.341 85.633 C 26.341 87.171,26.415 87.300,27.303 87.300 C 27.889 87.300,28.169 87.457,28.019 87.701 C 27.512 88.521,28.217 90.687,28.992 90.687 C 29.476 90.687,29.727 90.943,29.727 91.439 C 29.727 91.991,29.978 92.192,30.665 92.192 C 31.546 92.192,31.597 92.301,31.512 93.979 C 31.430 95.579,31.509 95.779,32.267 95.887 C 32.985 95.989,33.114 96.238,33.114 97.521 C 33.114 98.719,33.271 99.077,33.866 99.232 C 34.394 99.370,34.619 99.746,34.619 100.487 C 34.619 101.517,35.447 102.728,36.151 102.728 C 36.343 102.728,36.500 103.151,36.500 103.669 C 36.500 104.186,36.824 104.933,37.219 105.328 C 37.614 105.723,37.997 106.358,38.069 106.739 C 38.142 107.120,38.581 107.486,39.044 107.552 C 39.772 107.656,39.887 107.899,39.887 109.339 C 39.887 110.850,39.972 111.007,40.793 111.007 C 41.510 111.007,41.658 111.161,41.503 111.753 C 41.173 113.017,41.707 114.393,42.528 114.393 C 43.150 114.393,43.274 114.649,43.274 115.934 C 43.274 117.143,43.431 117.515,44.005 117.665 C 44.407 117.771,44.788 118.220,44.852 118.665 C 44.924 119.171,45.284 119.518,45.814 119.593 C 46.532 119.695,46.660 119.944,46.660 121.228 C 46.660 122.412,46.820 122.784,47.393 122.934 C 47.918 123.071,48.157 123.512,48.239 124.498 C 48.322 125.496,48.585 125.972,49.200 126.242 C 49.859 126.530,50.047 126.922,50.047 128.004 C 50.047 129.038,50.230 129.452,50.760 129.621 C 51.208 129.763,51.567 130.348,51.726 131.193 C 51.891 132.075,52.229 132.604,52.706 132.729 C 53.169 132.850,53.434 133.246,53.434 133.816 C 53.434 134.496,53.639 134.713,54.280 134.713 C 55.026 134.712,55.127 134.904,55.127 136.312 C 55.127 137.684,55.247 137.929,55.974 138.032 C 56.706 138.136,56.820 138.377,56.820 139.819 C 56.820 141.202,56.941 141.486,57.530 141.486 C 58.083 141.486,58.296 141.861,58.494 143.180 C 58.695 144.517,58.901 144.873,59.477 144.873 C 59.967 144.873,60.207 145.132,60.207 145.661 C 60.207 146.132,60.509 146.528,60.960 146.645 C 61.486 146.783,61.712 147.159,61.712 147.896 C 61.712 149.441,62.077 150.141,62.881 150.141 C 63.464 150.141,63.594 150.421,63.594 151.682 C 63.594 152.874,63.754 153.264,64.303 153.408 C 64.791 153.535,65.089 154.066,65.255 155.104 C 65.425 156.169,65.715 156.671,66.238 156.808 C 66.797 156.954,66.980 157.325,66.980 158.311 C 66.980 159.290,67.164 159.667,67.712 159.810 C 68.114 159.915,68.495 160.365,68.558 160.810 C 68.630 161.316,68.990 161.663,69.520 161.738 C 70.253 161.842,70.367 162.083,70.367 163.526 C 70.367 164.942,70.480 165.193,71.119 165.193 C 71.648 165.193,71.874 165.445,71.877 166.040 C 71.887 167.631,72.323 168.579,73.045 168.579 C 73.623 168.579,73.754 168.862,73.754 170.120 C 73.754 171.344,73.908 171.701,74.506 171.857 C 74.920 171.965,75.259 172.289,75.259 172.577 C 75.259 172.865,75.682 173.468,76.199 173.918 C 76.850 174.483,77.140 175.122,77.140 175.985 C 77.140 176.983,77.291 177.234,77.893 177.234 C 78.421 177.234,78.647 177.487,78.650 178.081 C 78.660 179.673,79.096 180.621,79.818 180.621 C 80.397 180.621,80.527 180.904,80.527 182.161 C 80.527 183.387,80.681 183.742,81.282 183.899 C 81.811 184.037,82.106 184.525,82.266 185.525 C 82.420 186.487,82.725 187.013,83.204 187.138 C 83.614 187.245,83.913 187.656,83.913 188.112 C 83.913 188.633,84.154 188.899,84.623 188.899 C 85.176 188.899,85.389 189.274,85.587 190.593 C 85.788 191.930,85.994 192.286,86.571 192.286 C 87.184 192.286,87.300 192.555,87.300 193.979 C 87.300 195.387,87.420 195.673,88.009 195.673 C 88.731 195.673,89.167 196.621,89.176 198.213 C 89.180 198.807,89.406 199.059,89.934 199.059 C 90.486 199.059,90.687 199.310,90.687 200.000 C 90.687 200.670,90.890 200.941,91.395 200.941 C 92.117 200.941,92.553 201.889,92.563 203.481 C 92.567 204.075,92.793 204.327,93.321 204.327 C 93.949 204.327,94.073 204.578,94.073 205.842 C 94.073 207.111,94.226 207.414,95.014 207.714 C 95.778 208.005,95.955 208.327,95.955 209.433 C 95.955 210.466,96.132 210.841,96.687 210.986 C 97.213 211.124,97.451 211.565,97.534 212.550 C 97.617 213.548,97.879 214.024,98.495 214.294 C 98.960 214.499,99.341 214.964,99.341 215.329 C 99.341 215.742,99.626 215.992,100.094 215.992 C 100.735 215.992,100.847 216.243,100.847 217.686 C 100.847 219.241,100.923 219.379,101.787 219.379 C 102.651 219.379,102.728 219.517,102.728 221.072 C 102.728 222.515,102.840 222.766,103.481 222.766 C 104.122 222.766,104.233 223.017,104.233 224.459 C 104.233 226.014,104.310 226.152,105.174 226.152 C 106.024 226.152,106.115 226.301,106.115 227.693 C 106.115 228.917,106.269 229.274,106.867 229.430 C 107.354 229.557,107.620 229.943,107.620 230.524 C 107.620 231.229,107.820 231.421,108.561 231.421 C 109.425 231.421,109.501 231.558,109.501 233.114 C 109.501 234.540,109.617 234.807,110.232 234.807 C 110.823 234.807,110.985 235.114,111.079 236.406 C 111.175 237.736,111.338 238.026,112.041 238.126 C 112.759 238.228,112.888 238.477,112.888 239.760 C 112.888 240.958,113.045 241.316,113.641 241.471 C 114.057 241.580,114.393 241.985,114.393 242.377 C 114.393 242.882,114.664 243.086,115.334 243.086 C 116.198 243.086,116.275 243.224,116.275 244.779 C 116.275 246.221,116.386 246.472,117.027 246.472 C 117.668 246.472,117.780 246.723,117.780 248.166 C 117.780 249.721,117.857 249.859,118.721 249.859 C 119.585 249.859,119.661 249.997,119.661 251.552 C 119.661 252.978,119.777 253.246,120.392 253.246 C 120.983 253.246,121.145 253.552,121.239 254.845 L 121.355 256.444 123.695 256.556 C 125.929 256.662,126.046 256.624,126.276 255.709 C 126.408 255.182,126.750 254.751,127.035 254.751 C 127.350 254.751,127.649 254.158,127.795 253.246 C 127.970 252.152,128.217 251.740,128.697 251.740 C 129.368 251.740,129.807 250.744,129.816 249.200 C 129.820 248.606,130.046 248.354,130.574 248.354 C 131.213 248.354,131.326 248.103,131.326 246.687 C 131.326 245.244,131.441 245.003,132.173 244.899 C 132.877 244.799,133.039 244.509,133.135 243.180 C 133.229 241.887,133.391 241.580,133.982 241.580 C 134.511 241.580,134.713 241.320,134.713 240.640 C 134.713 239.960,134.915 239.699,135.443 239.699 C 136.019 239.699,136.226 239.343,136.426 238.006 C 136.624 236.687,136.837 236.312,137.390 236.312 C 137.979 236.312,138.100 236.028,138.100 234.645 C 138.100 233.203,138.214 232.962,138.946 232.858 C 139.650 232.758,139.813 232.468,139.909 231.138 C 140.002 229.845,140.164 229.539,140.755 229.539 C 141.371 229.539,141.486 229.271,141.486 227.846 C 141.486 226.290,141.563 226.152,142.427 226.152 C 143.098 226.152,143.368 225.949,143.368 225.444 C 143.368 225.051,143.704 224.647,144.120 224.538 C 144.718 224.382,144.873 224.025,144.873 222.801 C 144.873 221.540,145.002 221.261,145.585 221.261 C 146.396 221.261,146.754 220.560,146.754 218.972 C 146.754 218.125,146.926 217.874,147.507 217.874 C 148.146 217.874,148.260 217.623,148.260 216.207 C 148.260 214.764,148.374 214.523,149.106 214.419 C 149.636 214.344,149.996 213.997,150.068 213.491 C 150.132 213.046,150.513 212.596,150.915 212.491 C 151.489 212.341,151.646 211.969,151.646 210.760 C 151.646 209.499,151.776 209.219,152.359 209.219 C 153.170 209.219,153.528 208.518,153.528 206.931 C 153.528 206.083,153.700 205.833,154.280 205.833 C 154.921 205.833,155.033 205.582,155.033 204.139 C 155.033 202.584,155.110 202.446,155.974 202.446 C 156.838 202.446,156.914 202.308,156.914 200.753 C 156.914 199.310,157.026 199.059,157.667 199.059 C 158.153 199.059,158.420 198.808,158.420 198.351 C 158.420 197.961,158.753 197.555,159.162 197.448 C 159.685 197.311,159.975 196.809,160.145 195.743 C 160.311 194.706,160.609 194.175,161.096 194.047 C 161.644 193.904,161.806 193.515,161.806 192.347 C 161.806 191.064,161.935 190.815,162.653 190.713 C 163.357 190.613,163.519 190.323,163.615 188.993 C 163.709 187.701,163.871 187.394,164.462 187.394 C 164.981 187.394,165.193 187.134,165.193 186.497 C 165.193 185.921,165.458 185.531,165.935 185.406 C 166.462 185.269,166.749 184.765,166.924 183.669 C 167.111 182.500,167.341 182.126,167.875 182.126 C 168.457 182.126,168.579 181.837,168.579 180.459 C 168.579 179.017,168.694 178.776,169.426 178.672 C 170.130 178.572,170.292 178.281,170.389 176.952 C 170.482 175.659,170.644 175.353,171.235 175.353 C 171.851 175.353,171.966 175.085,171.966 173.659 C 171.966 172.104,172.043 171.966,172.907 171.966 C 173.586 171.966,173.848 171.764,173.848 171.239 C 173.848 170.839,174.186 170.404,174.600 170.273 C 175.182 170.088,175.353 169.703,175.353 168.580 C 175.353 167.359,175.488 167.107,176.199 167.006 C 176.899 166.907,177.066 166.616,177.160 165.326 C 177.246 164.152,177.455 163.718,178.007 163.573 C 178.580 163.424,178.739 163.052,178.739 161.868 C 178.739 160.584,178.868 160.335,179.586 160.233 C 180.116 160.158,180.476 159.811,180.548 159.305 C 180.611 158.860,180.992 158.410,181.395 158.305 C 181.966 158.156,182.126 157.783,182.126 156.599 C 182.126 155.316,182.255 155.067,182.973 154.965 C 183.677 154.865,183.839 154.575,183.935 153.246 C 184.029 151.953,184.191 151.646,184.782 151.646 C 185.397 151.646,185.513 151.379,185.513 149.953 C 185.513 148.398,185.589 148.260,186.453 148.260 C 187.318 148.260,187.394 148.122,187.394 146.566 C 187.394 145.124,187.506 144.873,188.147 144.873 C 188.652 144.873,188.899 144.622,188.899 144.109 C 188.899 143.688,189.196 143.235,189.558 143.101 C 190.449 142.772,190.768 142.238,190.775 141.060 C 190.779 140.388,191.023 140.006,191.533 139.872 C 192.129 139.716,192.286 139.359,192.286 138.161 C 192.286 136.877,192.415 136.629,193.133 136.527 C 193.836 136.427,193.999 136.137,194.095 134.807 C 194.189 133.514,194.351 133.208,194.942 133.208 C 195.465 133.208,195.673 132.948,195.673 132.293 C 195.673 131.720,195.943 131.291,196.395 131.148 C 196.879 130.994,197.200 130.427,197.369 129.429 C 197.559 128.301,197.795 127.940,198.340 127.940 C 198.940 127.940,199.059 127.663,199.059 126.273 C 199.059 124.830,199.173 124.589,199.906 124.485 C 200.610 124.385,200.772 124.095,200.868 122.766 C 200.962 121.473,201.124 121.167,201.715 121.167 C 202.330 121.167,202.446 120.899,202.446 119.473 C 202.446 117.918,202.523 117.780,203.387 117.780 C 204.127 117.780,204.327 117.589,204.327 116.883 C 204.327 116.303,204.593 115.917,205.080 115.789 C 205.644 115.642,205.833 115.276,205.833 114.330 C 205.833 113.381,206.043 112.974,206.679 112.695 C 207.295 112.425,207.557 111.949,207.640 110.951 C 207.723 109.965,207.961 109.525,208.487 109.387 C 209.058 109.238,209.219 108.865,209.219 107.699 C 209.219 105.378,211.008 105.099,211.176 107.394 C 211.266 108.631,211.446 108.959,212.080 109.050 C 212.697 109.138,212.832 109.365,212.694 110.085 C 212.544 110.873,212.661 111.007,213.503 111.007 C 214.419 111.007,214.487 111.124,214.487 112.700 C 214.487 114.244,214.568 114.393,215.405 114.393 C 216.245 114.393,216.317 114.529,216.252 115.992 C 216.190 117.379,216.291 117.607,217.007 117.709 C 217.683 117.805,217.854 118.110,217.948 119.388 C 218.035 120.574,218.243 120.997,218.815 121.152 C 219.249 121.269,219.567 121.673,219.567 122.107 C 219.567 122.596,219.857 122.901,220.393 122.977 C 221.071 123.074,221.240 123.378,221.334 124.671 C 221.429 125.976,221.594 126.267,222.296 126.367 C 223.056 126.475,223.119 126.636,222.909 127.948 C 222.694 129.293,222.753 129.427,223.661 129.655 C 224.510 129.868,224.647 130.103,224.647 131.342 C 224.647 132.430,224.823 132.837,225.369 133.010 C 225.853 133.164,226.175 133.731,226.343 134.729 C 226.534 135.857,226.769 136.218,227.314 136.218 C 227.831 136.218,228.034 136.484,228.034 137.159 C 228.034 137.905,228.224 138.100,228.952 138.100 C 229.792 138.100,229.864 138.235,229.798 139.699 C 229.736 141.097,229.834 141.313,230.574 141.418 C 231.306 141.522,231.421 141.763,231.421 143.206 C 231.421 144.716,231.506 144.873,232.326 144.873 C 233.044 144.873,233.191 145.028,233.036 145.620 C 232.706 146.883,233.241 148.260,234.062 148.260 C 234.606 148.260,234.807 148.514,234.807 149.200 C 234.807 150.055,235.276 150.351,236.383 150.194 C 236.525 150.173,236.610 150.873,236.571 151.748 C 236.510 153.126,236.611 153.355,237.327 153.457 C 238.003 153.553,238.174 153.858,238.267 155.135 C 238.354 156.322,238.563 156.745,239.135 156.899 C 239.705 157.053,239.887 157.421,239.887 158.420 C 239.887 159.424,240.088 159.825,240.734 160.108 C 241.370 160.387,241.580 160.794,241.580 161.743 C 241.580 162.689,241.769 163.055,242.333 163.202 C 242.820 163.330,243.086 163.716,243.086 164.296 C 243.086 165.002,243.286 165.193,244.026 165.193 C 244.890 165.193,244.967 165.331,244.967 166.886 C 244.967 168.410,245.055 168.579,245.846 168.579 C 246.635 168.579,246.722 168.744,246.693 170.179 C 246.665 171.563,246.774 171.794,247.507 171.898 C 248.240 172.002,248.354 172.243,248.354 173.686 C 248.354 175.069,248.475 175.353,249.064 175.353 C 249.578 175.353,249.843 175.716,250.021 176.665 C 250.159 177.397,250.593 178.152,251.004 178.372 C 251.429 178.599,251.740 179.158,251.740 179.693 C 251.740 180.422,251.934 180.621,252.646 180.621 C 253.364 180.621,253.511 180.776,253.356 181.367 C 253.026 182.631,253.560 184.008,254.382 184.008 C 255.003 184.008,255.127 184.263,255.127 185.548 C 255.127 186.753,255.285 187.130,255.853 187.278 C 256.346 187.407,256.656 187.927,256.820 188.899 C 256.985 189.872,257.295 190.392,257.788 190.521 C 258.213 190.632,258.514 191.037,258.514 191.498 C 258.514 192.064,258.752 192.286,259.360 192.285 C 260.106 192.285,260.207 192.476,260.207 193.885 C 260.207 195.257,260.327 195.502,261.054 195.605 C 261.786 195.709,261.900 195.950,261.900 197.392 C 261.900 198.775,262.021 199.059,262.610 199.059 C 263.163 199.059,263.376 199.434,263.574 200.753 C 263.774 202.090,263.981 202.446,264.557 202.446 C 265.075 202.446,265.287 202.706,265.287 203.343 C 265.287 203.913,265.552 204.309,266.014 204.430 C 266.545 204.569,266.774 205.013,266.861 206.073 C 266.958 207.249,267.142 207.549,267.827 207.646 C 268.559 207.750,268.674 207.991,268.674 209.434 C 268.674 210.816,268.795 211.101,269.383 211.101 C 269.936 211.101,270.149 211.475,270.347 212.794 C 270.548 214.131,270.755 214.487,271.331 214.487 C 271.911 214.487,272.060 214.752,272.060 215.783 C 272.060 216.603,272.311 217.259,272.744 217.570 C 273.119 217.841,273.537 218.358,273.672 218.721 C 273.808 219.083,274.262 219.379,274.682 219.379 C 275.338 219.379,275.447 219.621,275.447 221.072 C 275.447 222.515,275.558 222.766,276.199 222.766 C 276.728 222.766,276.954 223.018,276.957 223.612 C 276.967 225.204,277.403 226.152,278.125 226.152 C 278.714 226.152,278.833 226.438,278.833 227.846 C 278.833 229.275,278.948 229.539,279.569 229.539 C 280.114 229.539,280.370 229.886,280.557 230.882 C 280.695 231.621,281.126 232.423,281.514 232.666 C 281.903 232.908,282.220 233.489,282.220 233.957 C 282.220 234.539,282.444 234.807,282.930 234.807 C 283.483 234.807,283.696 235.182,283.894 236.500 C 284.094 237.838,284.301 238.194,284.877 238.194 C 285.480 238.194,285.607 238.461,285.607 239.734 C 285.607 240.960,285.761 241.315,286.362 241.472 C 286.900 241.613,287.187 242.104,287.359 243.180 C 287.523 244.205,287.824 244.749,288.297 244.873 C 288.680 244.973,288.993 245.374,288.993 245.764 C 288.993 246.207,289.259 246.472,289.702 246.472 C 290.424 246.472,290.860 247.421,290.870 249.012 C 290.873 249.606,291.099 249.859,291.627 249.859 C 292.269 249.859,292.380 250.110,292.380 251.552 C 292.380 252.963,292.499 253.246,293.092 253.246 C 293.903 253.246,294.262 253.946,294.262 255.534 C 294.262 256.623,294.280 256.632,296.479 256.632 C 299.010 256.632,299.153 256.470,299.153 253.617 C 299.153 252.012,299.255 251.778,300.000 251.672 C 300.530 251.597,300.890 251.250,300.962 250.744 C 301.025 250.299,301.406 249.850,301.809 249.744 C 302.383 249.594,302.540 249.222,302.540 248.013 C 302.540 246.752,302.669 246.472,303.252 246.472 C 304.063 246.472,304.421 245.771,304.421 244.184 C 304.421 243.336,304.593 243.086,305.174 243.086 C 305.815 243.086,305.927 242.835,305.927 241.392 C 305.927 239.837,306.003 239.699,306.867 239.699 C 307.731 239.699,307.808 239.561,307.808 238.006 C 307.808 236.563,307.920 236.312,308.561 236.312 C 309.047 236.312,309.313 236.061,309.313 235.604 C 309.313 235.214,309.647 234.808,310.055 234.701 C 310.579 234.564,310.869 234.062,311.039 232.996 C 311.205 231.959,311.503 231.428,311.990 231.300 C 312.537 231.157,312.700 230.768,312.700 229.600 C 312.700 228.317,312.829 228.068,313.547 227.966 C 314.250 227.866,314.413 227.576,314.509 226.246 C 314.602 224.954,314.765 224.647,315.356 224.647 C 315.830 224.647,316.087 224.389,316.087 223.912 C 316.087 223.507,316.510 222.753,317.027 222.236 C 317.545 221.718,317.968 220.864,317.968 220.337 C 317.968 219.630,318.165 219.379,318.721 219.379 C 319.360 219.379,319.473 219.128,319.473 217.712 C 319.473 216.270,319.587 216.029,320.320 215.925 C 321.024 215.825,321.186 215.535,321.282 214.205 C 321.376 212.912,321.538 212.606,322.129 212.606 C 322.744 212.606,322.860 212.338,322.860 210.913 C 322.860 209.357,322.936 209.219,323.801 209.219 C 324.480 209.219,324.741 209.017,324.741 208.492 C 324.741 208.092,325.080 207.657,325.494 207.526 C 326.078 207.340,326.246 206.957,326.246 205.807 C 326.246 204.606,326.381 204.327,326.959 204.327 C 327.770 204.327,328.128 203.627,328.128 202.039 C 328.128 201.192,328.300 200.941,328.881 200.941 C 329.520 200.941,329.633 200.690,329.633 199.274 C 329.633 197.831,329.747 197.590,330.480 197.486 C 331.076 197.401,331.360 197.072,331.442 196.370 C 331.505 195.823,331.886 195.077,332.288 194.713 C 332.691 194.349,333.020 193.654,333.020 193.168 C 333.020 192.555,333.236 192.286,333.728 192.286 C 334.450 192.286,334.886 191.338,334.896 189.746 C 334.900 189.152,335.126 188.899,335.654 188.899 C 336.293 188.899,336.406 188.648,336.406 187.232 C 336.406 185.790,336.521 185.549,337.253 185.445 C 337.957 185.345,338.119 185.055,338.215 183.725 C 338.309 182.432,338.471 182.126,339.062 182.126 C 340.198 182.126,340.177 175.759,339.040 175.462 C 338.546 175.333,338.288 174.949,338.288 174.343 C 338.288 173.121,337.642 171.966,336.958 171.966 C 336.625 171.966,336.406 171.604,336.406 171.056 C 336.406 169.775,336.034 168.956,335.452 168.956 C 335.178 168.956,334.899 168.575,334.833 168.109 C 334.756 167.565,334.411 167.219,333.866 167.142 C 333.134 167.038,333.020 166.797,333.020 165.355 C 333.020 163.955,332.903 163.688,332.289 163.688 C 331.698 163.688,331.536 163.381,331.442 162.088 C 331.346 160.759,331.184 160.469,330.480 160.369 C 329.762 160.267,329.633 160.018,329.633 158.734 C 329.633 157.551,329.473 157.178,328.902 157.029 C 328.499 156.924,328.118 156.474,328.055 156.029 C 327.983 155.523,327.623 155.176,327.093 155.101 C 326.361 154.997,326.246 154.756,326.246 153.313 C 326.246 151.897,326.133 151.646,325.494 151.646 C 324.913 151.646,324.741 151.395,324.741 150.548 C 324.741 148.960,324.383 148.260,323.572 148.260 C 322.989 148.260,322.860 147.980,322.860 146.719 C 322.860 145.514,322.702 145.138,322.134 144.989 C 321.641 144.860,321.331 144.340,321.167 143.368 C 321.002 142.395,320.692 141.876,320.199 141.747 C 319.774 141.635,319.473 141.231,319.473 140.769 C 319.473 140.240,319.233 139.981,318.742 139.981 C 318.151 139.981,317.989 139.675,317.896 138.382 C 317.799 137.052,317.637 136.762,316.933 136.662 C 316.201 136.558,316.087 136.317,316.087 134.875 C 316.087 133.337,316.012 133.208,315.124 133.208 C 314.538 133.208,314.258 133.051,314.408 132.807 C 314.915 131.987,314.210 129.821,313.435 129.821 C 312.902 129.821,312.700 129.563,312.700 128.881 C 312.700 128.200,312.498 127.940,311.969 127.940 C 311.378 127.940,311.216 127.633,311.122 126.341 C 311.026 125.011,310.864 124.721,310.160 124.621 C 309.427 124.517,309.313 124.276,309.313 122.834 C 309.313 121.324,309.228 121.167,308.408 121.167 C 307.690 121.167,307.543 121.012,307.697 120.420 C 308.028 119.157,307.493 117.780,306.672 117.780 C 306.071 117.780,305.927 117.525,305.927 116.466 C 305.927 115.560,305.693 115.006,305.174 114.682 C 304.760 114.424,304.421 113.914,304.421 113.550 C 304.421 113.095,304.128 112.888,303.481 112.888 C 302.617 112.888,302.540 112.750,302.540 111.195 C 302.540 109.769,302.424 109.501,301.809 109.501 C 301.218 109.501,301.056 109.195,300.962 107.902 C 300.866 106.573,300.704 106.283,300.000 106.183 C 299.267 106.079,299.153 105.838,299.153 104.395 C 299.153 102.868,299.074 102.728,298.213 102.728 C 297.349 102.728,297.272 102.590,297.272 101.035 C 297.272 99.592,297.160 99.341,296.519 99.341 C 295.967 99.341,295.767 99.091,295.767 98.401 C 295.767 97.648,295.579 97.460,294.826 97.460 C 293.962 97.460,293.885 97.322,293.885 95.767 C 293.885 94.324,293.774 94.073,293.133 94.073 C 292.492 94.073,292.380 93.823,292.380 92.380 C 292.380 90.825,292.303 90.687,291.439 90.687 C 290.589 90.687,290.499 90.539,290.499 89.146 C 290.499 87.922,290.344 87.565,289.746 87.409 C 289.329 87.300,288.993 86.896,288.993 86.504 C 288.993 85.999,288.723 85.795,288.053 85.795 C 287.192 85.795,287.112 85.654,287.112 84.145 C 287.112 82.813,286.968 82.458,286.359 82.299 C 285.761 82.143,285.607 81.786,285.607 80.562 C 285.607 79.170,285.516 79.022,284.666 79.022 C 283.802 79.022,283.725 78.884,283.725 77.328 C 283.725 75.886,283.614 75.635,282.973 75.635 C 282.392 75.635,282.220 75.384,282.220 74.537 C 282.220 72.949,281.862 72.248,281.051 72.248 C 280.542 72.248,280.339 71.980,280.339 71.308 C 280.339 70.618,280.138 70.367,279.586 70.367 C 278.945 70.367,278.833 70.116,278.833 68.674 C 278.833 67.118,278.757 66.980,277.893 66.980 C 277.029 66.980,276.952 66.842,276.952 65.287 C 276.952 63.861,276.837 63.594,276.221 63.594 C 275.630 63.594,275.468 63.287,275.374 61.994 C 275.278 60.665,275.116 60.375,274.412 60.275 C 273.852 60.195,273.565 59.896,273.565 59.393 C 273.565 58.955,273.254 58.550,272.833 58.440 C 272.281 58.296,272.071 57.861,271.986 56.688 C 271.892 55.398,271.725 55.106,271.025 55.007 C 270.308 54.905,270.179 54.656,270.179 53.372 C 270.179 52.175,270.021 51.817,269.426 51.661 C 268.837 51.507,268.674 51.148,268.674 50.010 C 268.674 48.773,268.533 48.521,267.733 48.320 C 266.931 48.119,266.792 47.868,266.792 46.620 C 266.792 45.406,266.663 45.155,266.040 45.155 C 265.488 45.155,265.287 44.904,265.287 44.214 C 265.287 43.462,265.099 43.274,264.346 43.274 C 263.482 43.274,263.405 43.136,263.405 41.580 C 263.405 40.138,263.294 39.887,262.653 39.887 C 262.012 39.887,261.900 39.636,261.900 38.194 C 261.900 36.638,261.824 36.500,260.960 36.500 C 260.095 36.500,260.019 36.362,260.019 34.807 L 260.019 33.114 210.913 33.114 C 162.057 33.114,161.806 33.118,161.806 33.866 C 161.806 34.368,161.555 34.619,161.054 34.619 C 160.414 34.619,160.301 34.870,160.301 36.286 C 160.301 37.729,160.187 37.970,159.454 38.074 C 158.924 38.149,158.565 38.496,158.492 39.002 C 158.429 39.447,158.048 39.896,157.646 40.002 C 157.074 40.151,156.914 40.524,156.914 41.707 C 156.914 42.991,156.786 43.240,156.068 43.342 C 155.364 43.442,155.202 43.732,155.105 45.061 C 155.012 46.354,154.850 46.660,154.259 46.660 C 153.643 46.660,153.528 46.928,153.528 48.354 C 153.528 49.909,153.451 50.047,152.587 50.047 C 151.861 50.047,151.646 50.241,151.646 50.897 C 151.646 51.365,151.319 51.952,150.918 52.202 C 150.496 52.466,150.141 53.175,150.072 53.892 C 149.980 54.842,149.757 55.155,149.106 55.247 C 148.395 55.348,148.260 55.600,148.260 56.821 C 148.260 57.944,148.089 58.329,147.507 58.514 C 146.927 58.698,146.754 59.083,146.754 60.192 C 146.754 61.413,146.612 61.666,145.814 61.867 C 145.013 62.068,144.873 62.320,144.873 63.557 C 144.873 64.695,144.709 65.054,144.120 65.208 C 143.670 65.326,143.368 65.721,143.368 66.192 C 143.368 66.715,143.128 66.980,142.655 66.980 C 141.844 66.980,141.486 67.681,141.486 69.269 C 141.486 70.116,141.314 70.367,140.734 70.367 C 140.093 70.367,139.981 70.618,139.981 72.060 C 139.981 73.616,139.905 73.754,139.040 73.754 C 138.176 73.754,138.100 73.892,138.100 75.447 C 138.100 76.889,137.988 77.140,137.347 77.140 C 136.758 77.140,136.595 77.391,136.595 78.296 C 136.595 79.449,135.880 80.527,135.116 80.527 C 134.895 80.527,134.713 80.950,134.713 81.468 C 134.713 82.157,134.512 82.408,133.960 82.408 C 133.319 82.408,133.208 82.659,133.208 84.102 C 133.208 85.657,133.131 85.795,132.267 85.795 C 131.403 85.795,131.326 85.933,131.326 87.488 C 131.326 88.931,131.215 89.182,130.574 89.182 C 129.933 89.182,129.821 89.432,129.821 90.875 C 129.821 92.430,129.745 92.568,128.881 92.568 C 128.210 92.568,127.940 92.772,127.940 93.277 C 127.940 93.669,127.604 94.073,127.187 94.182 C 126.592 94.338,126.435 94.696,126.435 95.893 C 126.435 97.177,126.306 97.426,125.588 97.528 C 125.044 97.605,124.698 97.951,124.621 98.495 C 124.401 100.047,123.149 99.549,122.852 97.790 C 122.672 96.722,122.369 96.181,121.878 96.053 C 121.431 95.936,121.167 95.533,121.167 94.970 C 121.167 94.333,120.955 94.073,120.436 94.073 C 119.845 94.073,119.682 93.767,119.589 92.474 C 119.493 91.145,119.330 90.855,118.627 90.755 C 117.909 90.653,117.780 90.404,117.780 89.120 C 117.780 87.941,117.619 87.564,117.054 87.416 C 116.552 87.285,116.250 86.760,116.073 85.712 C 115.898 84.677,115.592 84.139,115.105 84.012 C 114.714 83.909,114.393 83.527,114.393 83.161 C 114.393 82.795,114.055 82.407,113.641 82.299 C 113.063 82.148,112.888 81.786,112.888 80.741 C 112.888 79.635,112.712 79.312,111.947 79.022 C 111.159 78.722,111.007 78.419,111.007 77.149 C 111.007 75.886,110.882 75.635,110.254 75.635 C 109.726 75.635,109.500 75.382,109.496 74.788 C 109.487 73.197,109.051 72.248,108.329 72.248 C 107.834 72.248,107.620 71.979,107.620 71.358 C 107.620 70.869,107.302 70.064,106.913 69.569 C 106.524 69.075,106.141 68.332,106.062 67.919 C 105.980 67.486,105.562 67.117,105.076 67.048 C 104.348 66.944,104.233 66.701,104.233 65.261 C 104.233 63.844,104.120 63.594,103.481 63.594 C 102.900 63.594,102.728 63.343,102.728 62.495 C 102.728 60.919,102.371 60.207,101.581 60.207 C 101.037 60.207,100.865 59.866,100.774 58.608 C 100.678 57.278,100.516 56.988,99.812 56.888 C 99.158 56.795,98.965 56.522,98.965 55.687 C 98.965 55.051,98.671 54.399,98.250 54.104 C 97.856 53.829,97.475 53.184,97.403 52.672 C 97.315 52.044,96.996 51.701,96.425 51.620 C 95.707 51.518,95.579 51.269,95.579 49.986 C 95.579 48.788,95.421 48.430,94.826 48.275 C 94.237 48.121,94.073 47.761,94.073 46.624 C 94.073 45.386,93.933 45.134,93.133 44.933 C 92.331 44.732,92.192 44.481,92.192 43.233 C 92.192 42.019,92.063 41.769,91.439 41.769 C 90.887 41.769,90.687 41.518,90.687 40.828 C 90.687 40.075,90.499 39.887,89.746 39.887 C 88.882 39.887,88.805 39.749,88.805 38.194 C 88.805 36.751,88.694 36.500,88.053 36.500 C 87.412 36.500,87.300 36.250,87.300 34.807 L 87.300 33.114 43.650 33.114 L 0.000 33.114 0.000 35.398 M119.004 290.216 L 117.793 291.063 117.786 333.678 L 117.780 376.294 118.877 376.294 C 119.481 376.294,120.060 376.082,120.165 375.823 C 120.317 375.447,120.360 375.447,120.384 375.823 C 120.407 376.182,122.111 376.294,127.563 376.294 L 134.713 376.294 134.713 359.737 C 134.713 343.772,134.738 343.180,135.422 343.180 C 136.129 343.180,136.579 342.235,136.589 340.730 C 136.592 340.314,136.933 339.763,137.347 339.504 C 137.866 339.180,138.100 338.627,138.100 337.720 C 138.100 336.414,138.109 336.406,139.793 336.406 C 141.235 336.406,141.486 336.295,141.486 335.654 C 141.486 334.938,141.737 334.901,146.566 334.901 C 151.395 334.901,151.646 334.938,151.646 335.654 C 151.646 336.206,151.897 336.406,152.587 336.406 C 153.291 336.406,153.528 336.605,153.528 337.194 C 153.528 337.658,153.829 338.061,154.261 338.174 C 154.812 338.318,155.022 338.752,155.107 339.926 C 155.201 341.216,155.368 341.507,156.068 341.607 L 156.914 341.727 156.914 359.010 L 156.914 376.294 165.381 376.294 L 173.848 376.294 173.848 357.315 C 173.848 338.370,173.725 336.406,172.540 336.406 C 172.085 336.406,171.966 335.901,171.966 333.960 C 171.966 331.765,171.889 331.515,171.214 331.515 C 170.572 331.515,170.461 331.264,170.461 329.821 C 170.461 328.266,170.384 328.128,169.520 328.128 C 168.656 328.128,168.579 327.990,168.579 326.435 C 168.579 325.025,168.460 324.741,167.868 324.741 C 167.422 324.741,167.068 324.389,166.920 323.801 C 166.781 323.248,166.414 322.860,166.029 322.860 C 165.669 322.860,165.162 322.521,164.904 322.107 C 164.580 321.588,164.026 321.355,163.120 321.355 C 161.969 321.355,161.806 321.238,161.806 320.414 C 161.806 319.509,161.715 319.473,159.404 319.473 C 157.319 319.473,156.976 319.374,156.805 318.721 C 156.618 318.005,156.292 317.968,150.141 317.968 C 143.990 317.968,143.664 318.005,143.477 318.721 C 143.318 319.329,142.964 319.473,141.631 319.473 C 140.122 319.473,139.981 319.554,139.981 320.414 C 139.981 321.278,139.843 321.355,138.288 321.355 C 136.845 321.355,136.595 321.466,136.595 322.107 C 136.595 322.659,136.344 322.860,135.654 322.860 L 134.713 322.860 134.713 306.951 C 134.713 293.161,134.635 290.931,134.127 290.206 C 133.217 288.906,120.866 288.914,119.004 290.216 M325.776 290.261 L 324.741 291.151 324.741 333.722 L 324.741 376.294 333.208 376.294 L 341.675 376.294 341.675 333.584 C 341.675 305.362,341.547 290.875,341.298 290.875 C 341.091 290.875,340.922 290.639,340.922 290.351 C 340.922 288.913,327.436 288.833,325.776 290.261 M15.074 318.698 C 14.634 319.138,13.701 319.474,12.723 319.545 C 11.370 319.642,11.081 319.802,10.980 320.508 C 10.878 321.226,10.630 321.355,9.346 321.355 C 8.148 321.355,7.791 321.512,7.635 322.107 C 7.526 322.524,7.122 322.860,6.729 322.860 C 6.224 322.860,6.021 323.130,6.021 323.801 C 6.021 324.553,5.833 324.741,5.080 324.741 C 4.390 324.741,4.139 324.942,4.139 325.494 C 4.139 325.996,3.888 326.246,3.387 326.246 C 2.747 326.246,2.634 326.497,2.634 327.914 C 2.634 329.340,2.515 329.598,1.812 329.701 C 1.007 329.819,0.989 329.948,0.952 336.030 C 0.909 343.008,0.933 343.180,1.922 343.180 C 2.483 343.180,2.634 343.455,2.634 344.475 C 2.634 345.296,2.885 345.951,3.317 346.263 C 3.693 346.533,4.117 347.067,4.260 347.449 C 4.403 347.831,4.841 348.227,5.235 348.330 C 5.629 348.433,6.036 348.840,6.139 349.235 C 6.285 349.794,6.668 349.953,7.867 349.953 C 9.259 349.953,9.407 350.043,9.407 350.894 C 9.407 351.758,9.545 351.834,11.101 351.834 C 12.543 351.834,12.794 351.946,12.794 352.587 C 12.794 353.259,13.045 353.340,15.151 353.340 C 17.234 353.340,17.550 353.438,17.879 354.186 C 18.214 354.951,18.550 355.044,21.334 355.142 C 24.013 355.237,24.449 355.348,24.652 355.989 C 24.831 356.552,25.226 356.726,26.325 356.726 C 27.546 356.726,27.800 356.869,28.000 357.667 C 28.153 358.274,28.500 358.608,28.982 358.608 C 29.980 358.608,29.974 359.961,28.975 360.222 C 28.561 360.330,28.222 360.693,28.222 361.028 C 28.222 361.363,27.799 361.798,27.281 361.994 C 26.764 362.191,26.341 362.610,26.341 362.926 C 26.341 363.407,25.640 363.500,22.013 363.500 C 17.937 363.500,17.686 363.456,17.686 362.747 C 17.686 362.264,17.435 361.994,16.985 361.994 C 16.402 361.994,16.251 361.612,16.078 359.707 C 15.806 356.711,16.441 356.931,7.683 356.793 L 0.000 356.671 0.000 360.838 C 0.000 364.416,0.086 365.005,0.605 365.005 C 1.068 365.005,1.153 365.233,0.966 365.977 C 0.637 367.289,0.997 368.269,1.894 368.504 C 2.333 368.618,2.634 369.018,2.634 369.485 C 2.634 370.059,2.872 370.273,3.511 370.273 C 4.178 370.273,4.380 370.475,4.357 371.119 C 4.336 371.722,4.571 372.001,5.174 372.086 C 5.718 372.164,6.021 372.466,6.021 372.933 C 6.021 373.493,6.285 373.659,7.176 373.659 C 8.329 373.659,9.407 374.374,9.407 375.138 C 9.407 375.359,9.831 375.541,10.348 375.541 C 10.865 375.541,11.289 375.710,11.289 375.917 C 11.289 376.160,15.428 376.294,22.954 376.294 C 30.480 376.294,34.619 376.160,34.619 375.917 C 34.619 375.710,35.000 375.539,35.466 375.536 C 37.057 375.526,38.006 375.090,38.006 374.368 C 38.006 373.863,38.276 373.659,38.946 373.659 C 39.636 373.659,39.887 373.459,39.887 372.907 C 39.887 372.405,40.138 372.154,40.640 372.154 C 41.192 372.154,41.392 371.903,41.392 371.214 C 41.392 370.461,41.580 370.273,42.333 370.273 C 43.003 370.273,43.274 370.069,43.274 369.564 C 43.274 369.172,43.610 368.768,44.026 368.659 C 44.618 368.504,44.779 368.145,44.779 366.982 C 44.779 365.764,44.947 365.425,45.730 365.068 L 46.681 364.635 46.577 359.270 C 46.476 354.114,46.439 353.889,45.626 353.533 C 44.938 353.231,44.779 352.860,44.779 351.557 C 44.779 350.204,44.661 349.953,44.026 349.953 C 43.525 349.953,43.274 349.702,43.274 349.200 C 43.274 348.648,43.023 348.448,42.333 348.448 C 41.580 348.448,41.392 348.260,41.392 347.507 C 41.392 346.817,41.192 346.566,40.640 346.566 C 40.138 346.566,39.887 346.315,39.887 345.814 C 39.887 345.174,39.636 345.061,38.220 345.061 C 36.778 345.061,36.537 344.947,36.433 344.214 C 36.333 343.515,36.042 343.348,34.752 343.254 C 33.578 343.168,33.144 342.959,33.000 342.407 C 32.829 341.753,32.463 341.675,29.600 341.675 C 26.561 341.675,26.387 341.630,26.273 340.828 C 26.161 340.044,25.935 339.973,23.229 339.871 C 20.807 339.780,20.227 339.635,19.846 339.025 C 19.593 338.619,19.004 338.288,18.536 338.288 C 17.185 338.288,17.267 335.088,18.627 334.747 C 19.234 334.594,19.567 334.246,19.567 333.765 C 19.567 333.077,19.829 333.020,22.954 333.020 C 26.020 333.020,26.341 333.087,26.341 333.728 C 26.341 334.121,26.677 334.525,27.093 334.634 C 27.663 334.783,27.846 335.147,27.846 336.137 C 27.846 338.258,28.087 338.314,36.737 338.202 L 44.591 338.100 44.700 334.807 C 44.801 331.733,44.759 331.515,44.058 331.515 C 43.394 331.515,43.295 331.224,43.197 328.975 C 43.096 326.667,43.008 326.424,42.239 326.314 C 41.695 326.237,41.392 325.935,41.392 325.468 C 41.392 324.992,41.132 324.741,40.640 324.741 C 40.088 324.741,39.887 324.490,39.887 323.801 C 39.887 323.048,39.699 322.860,38.946 322.860 C 38.257 322.860,38.006 322.659,38.006 322.107 C 38.006 321.466,37.755 321.355,36.312 321.355 C 34.757 321.355,34.619 321.278,34.619 320.414 C 34.619 319.507,34.531 319.473,32.173 319.473 C 29.978 319.473,29.727 319.396,29.727 318.721 C 29.727 317.573,16.220 317.552,15.074 318.698 M77.140 318.721 C 77.140 319.395,76.889 319.473,74.735 319.473 C 72.483 319.473,72.315 319.533,72.094 320.414 C 71.892 321.217,71.642 321.355,70.385 321.355 C 69.257 321.355,68.858 321.526,68.680 322.086 C 68.516 322.603,68.042 322.850,67.056 322.932 C 65.941 323.025,65.639 323.217,65.543 323.895 C 65.456 324.507,65.170 324.741,64.508 324.741 C 63.855 324.741,63.594 324.949,63.594 325.468 C 63.594 325.935,63.291 326.237,62.747 326.314 C 62.203 326.392,61.857 326.737,61.780 327.281 C 61.703 327.825,61.400 328.128,60.933 328.128 C 60.458 328.128,60.207 328.388,60.207 328.881 C 60.207 329.374,59.956 329.633,59.477 329.633 C 58.901 329.633,58.695 329.989,58.494 331.326 C 58.296 332.645,58.083 333.020,57.530 333.020 C 56.940 333.020,56.820 333.305,56.820 334.713 C 56.820 336.150,56.707 336.406,56.075 336.406 C 55.142 336.406,54.823 337.559,54.997 340.303 C 55.068 341.433,55.023 342.292,54.895 342.213 C 54.768 342.133,54.381 342.380,54.037 342.761 C 52.963 343.948,53.315 353.108,54.441 353.268 C 55.148 353.369,55.232 353.560,55.054 354.659 C 54.674 357.001,55.268 360.113,56.095 360.113 C 56.704 360.113,56.820 360.385,56.820 361.806 C 56.820 363.228,56.937 363.500,57.547 363.500 C 58.014 363.500,58.316 363.802,58.393 364.346 C 58.471 364.890,58.816 365.236,59.360 365.313 C 59.964 365.399,60.207 365.687,60.207 366.317 C 60.207 367.597,60.586 368.391,61.197 368.391 C 61.491 368.391,61.892 368.815,62.088 369.332 C 62.375 370.085,62.706 370.273,63.746 370.273 C 64.808 370.273,65.068 370.428,65.167 371.119 C 65.244 371.664,65.589 372.009,66.134 372.086 C 66.678 372.164,66.980 372.466,66.980 372.933 C 66.980 373.543,67.251 373.659,68.674 373.659 C 70.229 373.659,70.367 373.736,70.367 374.600 C 70.367 375.464,70.505 375.541,72.060 375.541 C 72.992 375.541,73.754 375.710,73.754 375.917 C 73.754 376.159,77.642 376.294,84.666 376.294 C 90.668 376.294,95.579 376.145,95.579 375.964 C 95.579 375.782,96.543 375.554,97.721 375.456 C 99.375 375.319,99.986 375.094,100.401 374.469 C 100.697 374.024,101.272 373.659,101.680 373.659 C 102.106 373.659,102.506 373.338,102.619 372.907 C 102.728 372.490,103.132 372.154,103.525 372.154 C 104.030 372.154,104.233 371.884,104.233 371.214 C 104.233 370.461,104.421 370.273,105.174 370.273 C 105.864 370.273,106.115 370.072,106.115 369.520 C 106.115 369.019,106.366 368.768,106.867 368.768 C 107.548 368.768,107.620 368.517,107.620 366.134 C 107.620 363.805,107.538 363.500,106.911 363.500 C 106.519 363.500,106.115 363.163,106.006 362.747 C 105.891 362.307,105.492 361.994,105.047 361.994 C 104.544 361.994,104.245 361.707,104.165 361.148 C 104.088 360.604,103.743 360.258,103.198 360.181 C 102.733 360.115,102.352 359.802,102.352 359.487 C 102.352 359.172,102.023 358.827,101.620 358.722 C 101.218 358.617,100.837 358.167,100.774 357.723 C 100.579 356.355,95.955 356.284,95.955 357.649 C 95.955 358.421,95.771 358.608,95.014 358.608 C 94.334 358.608,94.073 358.810,94.073 359.339 C 94.073 359.930,93.767 360.092,92.474 360.185 C 91.145 360.282,90.855 360.444,90.755 361.148 C 90.602 362.226,80.527 362.517,80.527 361.443 C 80.527 360.750,79.368 360.113,78.106 360.113 C 77.391 360.113,77.140 359.917,77.140 359.360 C 77.140 358.808,76.889 358.608,76.199 358.608 C 75.447 358.608,75.259 358.420,75.259 357.667 C 75.259 356.977,75.058 356.726,74.506 356.726 C 74.004 356.726,73.754 356.475,73.754 355.974 C 73.754 355.422,73.503 355.221,72.813 355.221 C 71.900 355.221,71.872 355.144,71.872 352.618 C 71.872 349.682,71.650 348.824,70.891 348.824 C 70.560 348.824,70.367 348.409,70.367 347.695 C 70.367 346.817,70.534 346.566,71.119 346.566 C 71.794 346.566,71.872 346.315,71.872 344.161 C 71.872 341.910,71.932 341.741,72.813 341.520 C 73.619 341.318,73.754 341.070,73.754 339.786 C 73.754 338.539,73.880 338.288,74.506 338.288 C 75.058 338.288,75.259 338.037,75.259 337.347 C 75.259 336.483,75.397 336.406,76.952 336.406 C 78.349 336.406,78.645 336.285,78.645 335.710 C 78.645 334.851,83.160 334.451,88.947 334.796 C 92.144 334.986,92.568 335.094,92.568 335.709 C 92.568 336.156,92.839 336.406,93.321 336.406 C 93.820 336.406,94.073 336.657,94.073 337.152 C 94.073 337.625,94.404 337.980,94.979 338.124 C 95.476 338.249,95.969 338.676,96.072 339.072 C 96.576 340.998,100.847 339.455,100.847 337.347 C 100.847 336.595,101.035 336.406,101.787 336.406 C 102.456 336.406,102.728 336.203,102.728 335.702 C 102.728 335.175,103.095 334.939,104.189 334.764 C 105.219 334.599,105.708 334.308,105.847 333.775 C 105.965 333.322,106.360 333.020,106.832 333.020 C 108.007 333.020,108.053 326.666,106.880 326.359 C 106.473 326.252,106.038 325.845,105.914 325.453 C 105.778 325.025,105.341 324.741,104.816 324.741 C 104.271 324.741,103.874 324.469,103.754 324.014 C 103.629 323.535,103.099 323.199,102.205 323.031 C 101.214 322.845,100.847 322.584,100.847 322.065 C 100.847 321.474,100.563 321.355,99.153 321.355 C 97.598 321.355,97.460 321.278,97.460 320.414 C 97.460 319.500,97.385 319.473,94.826 319.473 C 92.443 319.473,92.192 319.402,92.192 318.721 C 92.192 317.993,91.941 317.968,84.666 317.968 C 77.391 317.968,77.140 317.993,77.140 318.721 M206.209 318.703 C 206.209 319.349,205.900 319.452,203.669 319.550 C 201.361 319.651,201.118 319.739,201.009 320.508 C 200.905 321.241,200.664 321.355,199.221 321.355 C 197.825 321.355,197.554 321.473,197.554 322.081 C 197.554 322.548,197.252 322.850,196.707 322.928 C 196.104 323.013,195.869 323.292,195.891 323.895 C 195.913 324.539,195.711 324.741,195.044 324.741 C 194.418 324.741,194.167 324.957,194.167 325.494 C 194.167 326.045,193.917 326.246,193.231 326.246 C 192.485 326.246,192.313 326.418,192.384 327.092 C 192.451 327.716,192.252 327.969,191.627 328.059 C 191.084 328.137,190.781 328.440,190.781 328.907 C 190.781 329.439,190.518 329.633,189.799 329.633 C 188.940 329.633,188.847 329.750,189.054 330.574 C 189.259 331.391,189.165 331.515,188.342 331.515 C 187.469 331.515,187.394 331.649,187.394 333.208 C 187.394 334.763,187.318 334.901,186.453 334.901 C 185.548 334.901,185.513 334.992,185.513 337.303 C 185.513 339.389,185.414 339.731,184.760 339.902 C 184.038 340.091,184.008 340.415,184.008 348.033 C 184.008 355.560,184.046 355.991,184.760 356.437 C 185.292 356.769,185.513 357.315,185.513 358.297 C 185.513 360.120,186.103 361.618,186.820 361.618 C 187.182 361.618,187.394 361.967,187.394 362.559 C 187.394 363.235,187.597 363.500,188.115 363.500 C 189.001 363.500,189.232 364.070,188.988 365.663 C 188.817 366.780,188.886 366.886,189.791 366.886 C 190.596 366.886,190.781 367.062,190.781 367.827 C 190.781 368.570,190.971 368.768,191.686 368.768 C 192.407 368.768,192.552 368.922,192.395 369.520 C 192.235 370.131,192.383 370.273,193.183 370.273 C 193.982 370.273,194.167 370.450,194.167 371.214 C 194.167 371.917,194.366 372.154,194.955 372.154 C 195.427 372.154,195.822 372.457,195.940 372.907 C 196.093 373.493,196.453 373.659,197.572 373.659 C 198.774 373.659,199.026 373.797,199.127 374.506 C 199.227 375.210,199.517 375.372,200.847 375.468 C 201.726 375.532,202.446 375.744,202.446 375.939 C 202.446 376.153,207.130 376.294,214.299 376.294 C 221.468 376.294,226.152 376.153,226.152 375.939 C 226.152 375.744,226.872 375.532,227.752 375.468 C 229.081 375.372,229.371 375.210,229.471 374.506 C 229.573 373.788,229.822 373.659,231.106 373.659 C 232.289 373.659,232.662 373.500,232.811 372.928 C 232.916 372.526,233.366 372.145,233.811 372.081 C 234.317 372.009,234.664 371.650,234.739 371.119 C 234.817 370.575,235.119 370.273,235.586 370.273 C 236.053 370.273,236.312 370.013,236.312 369.546 C 236.312 369.080,236.615 368.777,237.159 368.700 C 237.703 368.622,238.049 368.277,238.126 367.733 C 238.203 367.189,238.506 366.886,238.973 366.886 C 239.583 366.886,239.699 366.615,239.699 365.193 C 239.699 363.638,239.776 363.500,240.640 363.500 C 241.504 363.500,241.580 363.362,241.580 361.806 C 241.580 360.364,241.692 360.113,242.333 360.113 C 242.973 360.113,243.086 359.862,243.086 358.439 C 243.086 357.171,243.316 356.517,244.034 355.741 L 244.983 354.718 244.881 347.538 C 244.781 340.498,244.762 340.350,243.932 339.986 C 243.184 339.658,243.086 339.341,243.086 337.258 C 243.086 335.175,243.001 334.901,242.355 334.901 C 241.764 334.901,241.602 334.595,241.508 333.302 C 241.412 331.973,241.249 331.682,240.546 331.582 C 239.933 331.495,239.699 331.210,239.699 330.548 C 239.699 329.884,239.493 329.633,238.946 329.633 C 238.445 329.633,238.194 329.382,238.194 328.881 C 238.194 328.329,237.943 328.128,237.253 328.128 C 236.500 328.128,236.312 327.940,236.312 327.187 C 236.312 326.497,236.112 326.246,235.560 326.246 C 235.058 326.246,234.807 325.996,234.807 325.494 C 234.807 324.942,234.556 324.741,233.866 324.741 C 233.114 324.741,232.926 324.553,232.926 323.801 C 232.926 323.097,232.727 322.860,232.138 322.860 C 231.667 322.860,231.271 322.558,231.153 322.107 C 231.001 321.525,230.640 321.355,229.556 321.355 C 228.426 321.355,228.072 321.172,227.726 320.414 C 227.341 319.568,227.077 319.473,225.122 319.473 C 223.354 319.473,222.859 319.332,222.477 318.721 C 221.753 317.562,206.209 317.546,206.209 318.703 M275.447 318.721 C 275.447 319.395,275.196 319.473,273.042 319.473 C 270.790 319.473,270.622 319.533,270.401 320.414 C 270.199 321.217,269.949 321.355,268.692 321.355 C 267.550 321.355,267.166 321.524,266.980 322.107 C 266.849 322.521,266.414 322.860,266.014 322.860 C 265.614 322.860,265.287 323.041,265.287 323.263 C 265.287 324.027,264.209 324.741,263.056 324.741 C 262.151 324.741,261.900 324.905,261.900 325.494 C 261.900 325.993,261.649 326.246,261.155 326.246 C 260.674 326.246,260.326 326.580,260.173 327.187 C 260.026 327.776,259.671 328.128,259.225 328.128 C 258.633 328.128,258.514 328.411,258.514 329.821 C 258.514 331.377,258.437 331.515,257.573 331.515 C 256.894 331.515,256.632 331.717,256.632 332.242 C 256.632 332.642,256.294 333.077,255.880 333.208 C 255.231 333.414,255.127 333.777,255.127 335.841 C 255.127 338.038,255.057 338.245,254.280 338.356 L 253.434 338.476 253.404 347.695 C 253.375 357.080,253.535 358.608,254.553 358.608 C 254.974 358.608,255.127 359.019,255.127 360.148 C 255.127 361.372,255.282 361.729,255.880 361.885 C 256.406 362.023,256.632 362.399,256.632 363.136 C 256.632 364.681,256.997 365.381,257.801 365.381 C 258.263 365.381,258.514 365.646,258.514 366.134 C 258.514 366.626,258.765 366.886,259.240 366.886 C 259.707 366.886,260.009 367.189,260.087 367.733 C 260.164 368.277,260.510 368.622,261.054 368.700 C 261.598 368.777,261.900 369.080,261.900 369.546 C 261.900 370.013,262.160 370.273,262.627 370.273 C 263.094 370.273,263.396 370.575,263.473 371.119 C 263.551 371.664,263.896 372.009,264.440 372.086 C 264.984 372.164,265.287 372.466,265.287 372.933 C 265.287 373.543,265.558 373.659,266.980 373.659 C 268.536 373.659,268.674 373.736,268.674 374.600 C 268.674 375.464,268.812 375.541,270.367 375.541 C 271.298 375.541,272.060 375.710,272.060 375.917 C 272.060 376.160,276.199 376.294,283.725 376.294 C 291.251 376.294,295.390 376.160,295.390 375.917 C 295.390 375.710,295.910 375.541,296.544 375.541 C 297.975 375.541,299.153 374.940,299.153 374.211 C 299.153 373.874,299.519 373.659,300.094 373.659 C 300.765 373.659,301.035 373.456,301.035 372.949 C 301.035 372.430,301.402 372.169,302.394 371.983 C 303.287 371.815,303.817 371.479,303.943 371.001 C 304.050 370.591,304.458 370.273,304.877 370.273 C 305.300 370.273,305.704 369.954,305.814 369.533 C 305.921 369.126,306.315 368.695,306.689 368.576 C 307.128 368.437,307.460 367.830,307.623 366.870 C 307.813 365.742,308.049 365.381,308.594 365.381 C 309.110 365.381,309.313 365.116,309.313 364.440 C 309.313 363.768,309.517 363.500,310.026 363.500 C 310.830 363.500,311.195 362.799,311.195 361.255 C 311.195 360.517,311.421 360.142,311.947 360.004 C 312.625 359.827,312.700 359.491,312.700 356.617 C 312.700 353.832,312.788 353.404,313.395 353.246 C 315.120 352.795,315.004 343.180,313.274 343.180 C 312.804 343.180,312.700 342.593,312.700 339.946 C 312.700 337.058,312.622 336.692,311.967 336.521 C 311.416 336.376,311.206 335.942,311.120 334.768 C 311.026 333.479,310.860 333.187,310.160 333.088 C 309.442 332.986,309.313 332.737,309.313 331.453 C 309.313 330.280,309.152 329.897,308.595 329.751 C 308.201 329.648,307.793 329.241,307.690 328.846 C 307.581 328.428,307.173 328.128,306.714 328.128 C 306.125 328.128,305.927 327.891,305.927 327.187 C 305.927 326.517,305.723 326.246,305.218 326.246 C 304.826 326.246,304.421 325.910,304.312 325.494 C 304.197 325.054,303.799 324.741,303.354 324.741 C 302.851 324.741,302.552 324.454,302.472 323.895 C 302.372 323.191,302.082 323.028,300.753 322.932 C 299.460 322.839,299.153 322.677,299.153 322.086 C 299.153 321.470,298.886 321.355,297.460 321.355 C 295.905 321.355,295.767 321.278,295.767 320.414 C 295.767 319.500,295.691 319.473,293.133 319.473 C 290.749 319.473,290.499 319.402,290.499 318.721 C 290.499 317.993,290.248 317.968,282.973 317.968 C 275.698 317.968,275.447 317.993,275.447 318.721 M368.877 318.721 C 368.718 319.329,368.363 319.473,367.030 319.473 C 365.522 319.473,365.381 319.554,365.381 320.414 C 365.381 321.278,365.243 321.355,363.688 321.355 C 362.245 321.355,361.994 321.466,361.994 322.107 C 361.994 322.659,361.743 322.860,361.054 322.860 C 360.301 322.860,360.113 323.048,360.113 323.801 C 360.113 324.490,359.912 324.741,359.360 324.741 C 358.868 324.741,358.608 324.992,358.608 325.468 C 358.608 325.935,358.305 326.237,357.761 326.314 C 357.057 326.414,356.895 326.704,356.799 328.034 C 356.705 329.327,356.543 329.633,355.952 329.633 C 355.255 329.633,355.221 329.951,355.221 336.406 C 355.221 342.862,355.255 343.180,355.952 343.180 C 356.543 343.180,356.705 343.486,356.799 344.779 C 356.895 346.108,357.057 346.398,357.761 346.498 C 358.321 346.578,358.608 346.877,358.608 347.380 C 358.608 347.813,358.918 348.223,359.326 348.330 C 359.720 348.433,360.128 348.840,360.231 349.235 C 360.376 349.791,360.760 349.953,361.933 349.953 C 363.217 349.953,363.465 350.082,363.567 350.800 C 363.667 351.503,363.957 351.666,365.287 351.762 C 366.580 351.856,366.886 352.018,366.886 352.609 C 366.886 353.262,367.163 353.340,369.494 353.340 C 371.912 353.340,372.111 353.401,372.222 354.186 C 372.335 354.981,372.545 355.040,375.635 355.142 C 378.618 355.240,378.928 355.320,378.928 355.988 C 378.928 356.612,379.190 356.726,380.621 356.726 C 382.176 356.726,382.314 356.803,382.314 357.667 C 382.314 358.357,382.515 358.608,383.067 358.608 C 383.569 358.608,383.819 358.859,383.819 359.360 C 383.819 359.862,383.569 360.113,383.067 360.113 C 382.515 360.113,382.314 360.364,382.314 361.054 C 382.314 361.758,382.116 361.994,381.526 361.994 C 381.055 361.994,380.660 362.297,380.542 362.747 C 380.360 363.441,380.028 363.500,376.250 363.500 C 372.405 363.500,372.154 363.453,372.154 362.747 C 372.154 362.195,371.903 361.994,371.214 361.994 C 370.349 361.994,370.273 361.856,370.273 360.301 C 370.273 358.879,370.156 358.608,369.546 358.608 C 369.080 358.608,368.777 358.305,368.700 357.761 C 368.580 356.915,368.572 356.914,361.054 356.914 L 353.528 356.914 353.421 360.949 L 353.314 364.984 354.268 365.223 C 355.088 365.429,355.221 365.671,355.221 366.962 C 355.221 368.145,355.380 368.503,355.974 368.659 C 356.390 368.768,356.726 369.172,356.726 369.564 C 356.726 370.069,356.997 370.273,357.667 370.273 C 358.420 370.273,358.608 370.461,358.608 371.214 C 358.608 371.903,358.808 372.154,359.360 372.154 C 359.862 372.154,360.113 372.405,360.113 372.907 C 360.113 373.459,360.364 373.659,361.054 373.659 C 361.724 373.659,361.994 373.863,361.994 374.368 C 361.994 375.090,362.943 375.526,364.534 375.536 C 365.000 375.539,365.381 375.710,365.381 375.917 C 365.381 376.160,369.395 376.294,376.670 376.294 C 383.945 376.294,387.959 376.160,387.959 375.917 C 387.959 375.710,388.559 375.541,389.293 375.541 C 390.214 375.541,390.918 375.250,391.568 374.600 C 392.085 374.083,392.839 373.659,393.244 373.659 C 393.720 373.659,393.979 373.403,393.979 372.933 C 393.979 372.466,394.282 372.164,394.826 372.086 C 395.370 372.009,395.716 371.664,395.793 371.119 C 395.870 370.575,396.173 370.273,396.640 370.273 C 397.083 370.273,397.366 370.014,397.366 369.609 C 397.366 369.245,397.747 368.779,398.213 368.575 C 398.940 368.255,399.075 367.873,399.171 365.851 C 399.233 364.558,399.445 363.500,399.642 363.500 C 399.847 363.500,400.000 361.731,400.000 359.360 C 400.000 356.990,399.847 355.221,399.642 355.221 C 399.445 355.221,399.233 354.163,399.171 352.869 C 399.075 350.848,398.940 350.465,398.213 350.146 C 397.747 349.942,397.366 349.476,397.366 349.111 C 397.366 348.707,397.083 348.448,396.640 348.448 C 396.173 348.448,395.870 348.145,395.793 347.601 C 395.716 347.057,395.370 346.711,394.826 346.634 C 394.282 346.557,393.979 346.254,393.979 345.788 C 393.979 345.177,393.708 345.061,392.286 345.061 C 390.731 345.061,390.593 344.984,390.593 344.120 C 390.593 343.260,390.452 343.180,388.943 343.180 C 387.610 343.180,387.256 343.035,387.097 342.427 C 386.920 341.749,386.584 341.675,383.693 341.675 C 380.653 341.675,380.479 341.630,380.365 340.828 C 380.252 340.033,380.042 339.974,376.952 339.872 C 373.969 339.774,373.659 339.694,373.659 339.026 C 373.659 338.539,373.404 338.288,372.907 338.288 C 371.696 338.288,371.841 335.249,373.112 333.978 C 374.428 332.661,380.433 332.487,380.433 333.765 C 380.433 334.242,380.764 334.594,381.354 334.742 C 382.119 334.934,382.294 335.237,382.388 336.536 L 382.502 338.100 390.357 338.202 C 399.506 338.320,399.247 338.411,399.247 335.074 C 399.247 332.219,399.016 331.515,398.078 331.515 C 397.485 331.515,397.366 331.232,397.366 329.821 C 397.366 328.379,397.254 328.128,396.613 328.128 C 395.972 328.128,395.861 327.877,395.861 326.435 C 395.861 324.879,395.784 324.741,394.920 324.741 C 394.167 324.741,393.979 324.553,393.979 323.801 C 393.979 323.097,393.781 322.860,393.191 322.860 C 392.720 322.860,392.325 322.558,392.207 322.107 C 392.053 321.521,391.694 321.355,390.575 321.355 C 389.373 321.355,389.120 321.217,389.020 320.508 C 388.910 319.739,388.667 319.651,386.359 319.550 C 384.128 319.452,383.819 319.349,383.819 318.703 C 383.819 317.543,369.180 317.560,368.877 318.721 M219.812 334.901 C 221.010 334.901,221.261 335.032,221.261 335.654 C 221.261 336.146,221.511 336.406,221.987 336.406 C 222.454 336.406,222.756 336.709,222.834 337.253 C 222.911 337.797,223.256 338.143,223.801 338.220 C 224.345 338.297,224.647 338.600,224.647 339.067 C 224.647 339.597,224.910 339.793,225.618 339.793 C 226.494 339.793,226.565 339.899,226.347 340.890 C 225.962 342.645,226.487 344.685,227.323 344.685 C 227.970 344.685,228.034 345.006,228.034 348.260 C 228.034 351.572,227.979 351.834,227.288 351.834 C 226.473 351.834,225.932 353.209,226.258 354.454 C 226.396 354.984,226.231 355.210,225.641 355.294 C 224.984 355.388,224.814 355.705,224.720 357.008 C 224.616 358.434,224.502 358.608,223.659 358.608 C 222.895 358.608,222.759 358.747,222.947 359.339 C 223.152 359.984,222.967 360.084,221.373 360.186 C 219.829 360.284,219.550 360.424,219.447 361.148 C 219.329 361.978,219.227 361.994,214.273 361.994 L 209.219 361.994 209.219 361.054 C 209.219 360.190,209.081 360.113,207.526 360.113 C 206.083 360.113,205.833 360.001,205.833 359.360 C 205.833 358.859,205.582 358.608,205.080 358.608 C 204.524 358.608,204.327 358.357,204.327 357.649 C 204.327 357.110,203.916 356.309,203.387 355.818 C 202.707 355.189,202.446 354.557,202.446 353.543 C 202.446 352.457,202.276 352.096,201.693 351.943 C 200.996 351.761,200.941 351.430,200.941 347.463 C 200.941 343.431,200.985 343.180,201.693 343.180 C 202.334 343.180,202.446 342.929,202.446 341.486 C 202.446 339.931,202.523 339.793,203.387 339.793 C 204.057 339.793,204.327 339.589,204.327 339.084 C 204.327 338.692,204.663 338.288,205.080 338.179 C 205.530 338.061,205.833 337.666,205.833 337.194 C 205.833 336.605,206.069 336.406,206.773 336.406 C 207.456 336.406,207.714 336.205,207.714 335.671 C 207.714 334.827,210.457 334.510,215.579 334.763 C 217.111 334.839,219.016 334.901,219.812 334.901 M286.084 334.766 C 288.427 334.964,288.966 335.131,289.116 335.706 C 289.257 336.245,289.654 336.406,290.840 336.406 C 292.220 336.406,292.380 336.501,292.380 337.321 C 292.380 337.983,292.614 338.269,293.227 338.356 C 293.912 338.453,294.096 338.753,294.193 339.929 C 294.279 340.975,294.511 341.434,295.022 341.568 C 295.605 341.720,295.753 342.170,295.844 344.066 C 295.943 346.138,296.043 346.391,296.802 346.498 C 297.887 346.653,297.991 348.288,296.936 348.623 C 296.046 348.906,295.778 349.881,295.772 352.869 C 295.767 354.968,295.686 355.221,295.014 355.221 C 294.521 355.221,294.262 355.472,294.262 355.947 C 294.262 356.414,293.959 356.717,293.415 356.794 C 292.871 356.871,292.525 357.217,292.448 357.761 C 292.371 358.305,292.068 358.608,291.601 358.608 C 291.126 358.608,290.875 358.868,290.875 359.360 C 290.875 359.912,290.624 360.113,289.934 360.113 C 289.182 360.113,288.993 360.301,288.993 361.054 L 288.993 361.994 283.913 361.994 C 279.703 361.994,278.833 361.900,278.833 361.443 C 278.833 360.750,277.674 360.113,276.412 360.113 C 275.698 360.113,275.447 359.917,275.447 359.360 C 275.447 358.808,275.196 358.608,274.506 358.608 C 273.754 358.608,273.565 358.420,273.565 357.667 C 273.565 356.986,273.363 356.726,272.834 356.726 C 272.244 356.726,272.081 356.420,271.988 355.127 C 271.892 353.798,271.729 353.507,271.025 353.408 C 269.778 353.230,269.688 343.386,270.931 342.992 C 271.450 342.827,271.756 342.295,271.920 341.273 C 272.097 340.162,272.332 339.793,272.861 339.793 C 273.361 339.793,273.565 339.521,273.565 338.852 C 273.565 338.148,273.764 337.912,274.353 337.912 C 274.825 337.912,275.220 337.609,275.338 337.159 C 275.447 336.742,275.851 336.406,276.243 336.406 C 276.695 336.406,276.952 336.140,276.952 335.672 C 276.952 335.036,277.268 334.919,279.304 334.804 C 280.597 334.730,282.011 334.637,282.446 334.597 C 282.880 334.558,284.517 334.633,286.084 334.766 " stroke="none" fill="#1c1c1c" fill-rule="evenodd"></path><path id="path1" d="M0.892 336.030 C 0.892 338.203,0.954 339.092,1.030 338.006 C 1.106 336.919,1.106 335.141,1.030 334.055 C 0.954 332.968,0.892 333.857,0.892 336.030 M253.386 347.883 C 253.387 350.160,253.449 351.043,253.524 349.845 C 253.599 348.648,253.598 346.785,253.522 345.706 C 253.447 344.627,253.385 345.607,253.386 347.883 " stroke="none" fill="#201c1c" fill-rule="evenodd"></path><path id="path2" d="M0.892 336.030 C 0.892 338.203,0.954 339.092,1.030 338.006 C 1.106 336.919,1.106 335.141,1.030 334.055 C 0.954 332.968,0.892 333.857,0.892 336.030 M253.386 347.883 C 253.387 350.160,253.449 351.043,253.524 349.845 C 253.599 348.648,253.598 346.785,253.522 345.706 C 253.447 344.627,253.385 345.607,253.386 347.883 " stroke="none" fill="#201c1c" fill-rule="evenodd"></path><path id="path3" d="M0.892 336.030 C 0.892 338.203,0.954 339.092,1.030 338.006 C 1.106 336.919,1.106 335.141,1.030 334.055 C 0.954 332.968,0.892 333.857,0.892 336.030 M253.386 347.883 C 253.387 350.160,253.449 351.043,253.524 349.845 C 253.599 348.648,253.598 346.785,253.522 345.706 C 253.447 344.627,253.385 345.607,253.386 347.883 " stroke="none" fill="#201c1c" fill-rule="evenodd"></path><path id="path4" d="M0.892 336.030 C 0.892 338.203,0.954 339.092,1.030 338.006 C 1.106 336.919,1.106 335.141,1.030 334.055 C 0.954 332.968,0.892 333.857,0.892 336.030 M253.386 347.883 C 253.387 350.160,253.449 351.043,253.524 349.845 C 253.599 348.648,253.598 346.785,253.522 345.706 C 253.447 344.627,253.385 345.607,253.386 347.883 " stroke="none" fill="#201c1c" fill-rule="evenodd"></path></g></svg>